:FULLY-SPECIFIED
:FORCE-ALL-JOINTS-BE-3DOF
:DEGREES
781
root 1.70701 16.2918 18.5055 -23.1647 80.3485 -29.7026
lfemur -39.0876 17.08 -16.3487
ltibia 51.9758 -0 0
lfoot -22.9547 20.4666 -0.0567708
ltoes 20.1551 -0 0
rfemur -15.3748 -24.3635 22.1264
rtibia 52.3274 -0 0
rfoot -19.3056 -34.0594 -0.037206
rtoes -23.0529 0 0
lowerback 1.12304 4.69894 -1.08704
upperback -1.03854 6.24497 -3.88289
thorax -1.3759 3.13787 -3.51461
lowerneck -5.3062 -6.78586 -0.854233
upperneck -2.75838 -8.89818 5.46255
head 0.3334 -4.37352 1.65239
lclavicle 5.69176e-14 -5.83256e-15 7.14093e-31
lhumerus -55.6384 -11.4739 94.5322
lradius 70.4503 -0 0
lwrist 12.4277 0 0
lhand -19.7562 -5.40016 0.0323518
lfingers 7.12502 -0 0
lthumb 6.57497 24.4713 0.0301392
rclavicle 5.69176e-14 -5.83256e-15 7.14093e-31
rhumerus -29.8738 48.3386 -111.586
rradius 79.777 -0 0
rwrist 6.3036 0 0
rhand -22.9652 -20.2488 -0.00440352
rfingers 7.12502 -0 0
rthumb 3.47676 -50.1999 -0.00424225
782
root 1.70068 16.3066 18.5842 -17.4515 78.3403 -23.9965
lfemur -39.0869 16.2159 -16.0298
ltibia 51.9834 -0 0
lfoot -22.7808 19.3579 -0.0933668
ltoes 19.7349 -0 0
rfemur -15.2085 -23.5757 22.0059
rtibia 51.808 -0 0
rfoot -19.4589 -33.2309 -0.0611689
rtoes -22.9102 0 0
lowerback 1.13889 4.69723 -0.916413
upperback -1.00512 6.24524 -3.79381
thorax -1.34219 3.13663 -3.51663
lowerneck -5.33703 -6.66215 -0.774127
upperneck -2.69487 -8.74293 5.34444
head 0.34626 -4.2969 1.60542
lclavicle 5.04226e-14 -5.45444e-15 1.17357e-30
lhumerus -55.6183 -11.3414 94.4477
lradius 70.2592 -0 0
lwrist 12.9497 0 0
lhand -19.4659 -5.01786 0.0531741
lfingers 7.12502 -0 0
lthumb 6.85507 24.8405 0.0495371
rclavicle 5.04226e-14 -5.45444e-15 1.17357e-30
rhumerus -30.1178 48.2112 -111.78
rradius 79.482 -0 0
rwrist 6.19539 0 0
rhand -22.9208 -20.59 -0.00723732
rfingers 7.12502 -0 0
rthumb 3.51957 -50.5403 -0.00697227
783
root 1.69301 16.3245 18.6796 -12.7378 75.8 -19.2913
lfemur -39.0927 15.1681 -15.6449
ltibia 51.9926 -0 0
lfoot -22.5691 18.0136 -0.133216
ltoes 19.2254 -0 0
rfemur -15.0106 -22.6202 21.8641
rtibia 51.1784 -0 0
rfoot -19.6452 -32.2262 -0.0872471
rtoes -22.7372 0 0
lowerback 1.15811 4.6951 -0.709518
upperback -0.964598 6.2455 -3.68581
thorax -1.30131 3.13514 -3.51908
lowerneck -5.37416 -6.51207 -0.67711
upperneck -2.61832 -8.5545 5.20153
head 0.361766 -4.20399 1.5485
lclavicle 4.25471e-14 -4.99596e-15 1.67319e-30
lhumerus -55.5942 -11.1806 94.3453
lradius 70.0274 -0 0
lwrist 13.5826 0 0
lhand -19.1137 -4.55416 0.0758225
lfingers 7.12502 -0 0
lthumb 7.19487 25.2883 0.0706358
rclavicle 4.25471e-14 -4.99596e-15 1.67319e-30
rhumerus -30.4119 48.0558 -112.015
rradius 79.1242 -0 0
rwrist 6.06418 0 0
rhand -22.8671 -21.0038 -0.0103192
rfingers 7.12502 -0 0
rthumb 3.57149 -50.9531 -0.0099413
784
root 1.68421 16.3451 18.7891 -9.06058 72.8032 -15.6239
lfemur -39.1083 13.965 -15.2051
ltibia 52.0031 -0 0
lfoot -22.325 16.4697 -0.172835
ltoes 18.6404 -0 0
rfemur -14.7882 -21.5223 21.7067
rtibia 50.4551 -0 0
rfoot -19.8597 -31.0722 -0.113161
rtoes -22.5385 0 0
lowerback 1.18017 4.69257 -0.471933
upperback -0.918061 6.2457 -3.56179
thorax -1.25437 3.13342 -3.5219
lowerneck -5.41648 -6.33966 -0.565858
upperneck -2.53105 -8.33789 5.03781
head 0.379457 -4.09727 1.48318
lclavicle 3.35036e-14 -4.46947e-15 2.16919e-30
lhumerus -55.5669 -10.9959 94.2279
lradius 69.7613 -0 0
lwrist 14.3096 0 0
lhand -18.7091 -4.02153 0.0983132
lfingers 7.12502 -0 0
lthumb 7.58526 25.8026 0.0915871
rclavicle 3.35036e-14 -4.46947e-15 2.16919e-30
rhumerus -30.7474 47.8765 -112.282
rradius 78.7134 -0 0
rwrist 5.9135 0 0
rhand -22.8053 -21.4789 -0.0133792
rfingers 7.12502 -0 0
rthumb 3.63113 -51.4271 -0.0128892
